<svg width="64" height="65" viewBox="0 0 64 65" fill="none" xmlns="http://www.w3.org/2000/svg">
<path id="Vector" d="M61.6949 12.9403L29.7084 44.951C28.4609 46.1994 26.4458 46.1994 25.1983 44.951L16.1461 35.892C14.8986 34.6436 14.8986 32.6269 16.1461 31.3785C17.3936 30.13 19.4087 30.13 20.6562 31.3785L27.4373 38.1647L57.1528 8.4268C58.4003 7.17838 60.4155 7.17838 61.6629 8.4268C62.9424 9.67521 62.9424 11.6919 61.6949 12.9403ZM44.0384 2.85694C38.6326 0.648198 32.4912 -0.120058 26.0939 1.03233C13.0754 3.36911 2.67977 13.8686 0.472696 26.897C-3.17377 48.5042 14.8027 67.0064 36.2656 64.2214C48.9323 62.5889 59.5518 53.1457 62.8784 40.8216C64.1579 36.116 64.2858 31.5705 63.5501 27.3131C63.1343 24.7523 59.9676 23.7599 58.1124 25.5845C57.3767 26.3208 57.0569 27.4091 57.2488 28.4335C57.9525 32.6909 57.6326 37.2364 55.5855 42.07C51.875 50.7449 43.8144 57.1151 34.4424 57.9793C18.1293 59.4838 4.59896 45.6552 6.61411 29.2337C7.98953 17.902 17.1057 8.68288 28.3969 7.11436C33.9306 6.3461 39.1764 7.40245 43.6545 9.70722C44.902 10.3474 46.4054 10.1234 47.3969 9.13103C48.9323 7.59452 48.5485 5.00165 46.6293 4.00932C45.7656 3.62519 44.902 3.20905 44.0384 2.85694Z" fill="#4D6EEA"/>
</svg>
