<svg width="568" height="343" viewBox="0 0 568 343" fill="none" xmlns="http://www.w3.org/2000/svg">
<path d="M362.495 28.9037H319.289V342.586H362.495V28.9037Z" fill="#D6DEFA"/>
<path d="M362.495 28.9037L428.42 70.5353V342.586H362.495V28.9037Z" fill="#F7F7F7"/>
<path d="M362.495 28.9037H319.289V52.323H362.495V28.9037Z" fill="#E8EAEE"/>
<path d="M458.049 106.474L418.074 129.295H498.024L458.049 106.474Z" fill="#4D6EEA"/>
<path d="M498.024 129.295H418.074V342.598H498.024V129.295Z" fill="#A8B9F5"/>
<path d="M498.024 142.375H418.074V149.102H498.024V142.375Z" fill="#7B93F0"/>
<path d="M498.024 163.727H418.074V170.454H498.024V163.727Z" fill="#7B93F0"/>
<path d="M498.024 185.078H418.074V191.805H498.024V185.078Z" fill="#7B93F0"/>
<path d="M498.024 206.43H418.074V213.156H498.024V206.43Z" fill="#7B93F0"/>
<path d="M498.024 227.781H418.074V234.508H498.024V227.781Z" fill="#7B93F0"/>
<path d="M498.024 249.133H418.074V255.859H498.024V249.133Z" fill="#7B93F0"/>
<path d="M498.024 270.472H418.074V277.198H498.024V270.472Z" fill="#7B93F0"/>
<path d="M498.024 291.823H418.074V298.55H498.024V291.823Z" fill="#7B93F0"/>
<path d="M498.024 313.174H418.074V319.901H498.024V313.174Z" fill="#7B93F0"/>
<path d="M498.024 334.526H418.074V341.253H498.024V334.526Z" fill="#7B93F0"/>
<path d="M458.049 106.474L418.074 129.295H471.139L458.049 106.474Z" fill="#204AE5"/>
<path d="M471.139 129.27H418.074V342.598H471.139V129.27Z" fill="#7B93F0"/>
<path d="M236.8 43.8148H192.735V342.586H236.8V43.8148Z" fill="#EDF0FD"/>
<path d="M236.8 43.8148L302.225 0.401855H236.8L192.427 43.5158L236.8 43.8148Z" fill="#E8EAEE"/>
<path d="M302.225 0.401855V342.586L236.8 342.586V43.8148L302.225 0.401855Z" fill="#F7F7F7"/>
<path d="M237.044 43.5158L192.427 43.5158V67.0847H237.044V43.5158Z" fill="#CBD0D7"/>
<path d="M112.887 69.1152L206.107 48.5111V342.586H112.887V69.1152Z" fill="#A8B9F5"/>
<path d="M354.88 157.835H288.237V342.586H354.88V157.835Z" fill="#EDF0FD"/>
<path d="M278.058 138.04L267.288 157.835V342.586H288.237V157.835L278.058 138.04Z" fill="#D6DEFA"/>
<path d="M553.91 205.47H487.626V342.586H553.91V205.47Z" fill="#A8B9F5"/>
<path d="M501.037 212.758H491.152V226.71H501.037V212.758Z" fill="#D6DEFA"/>
<path d="M513.371 212.758H503.486V226.71H513.371V212.758Z" fill="#D6DEFA"/>
<path d="M525.717 212.758H515.832V226.71H525.717V212.758Z" fill="#D6DEFA"/>
<path d="M538.051 212.758H528.166V226.71H538.051V212.758Z" fill="#D6DEFA"/>
<path d="M550.384 212.758H540.499V226.71H550.384V212.758Z" fill="#D6DEFA"/>
<path d="M501.037 228.94H491.152V242.892H501.037V228.94Z" fill="#D6DEFA"/>
<path d="M513.371 228.94H503.486V242.892H513.371V228.94Z" fill="#D6DEFA"/>
<path d="M525.717 228.94H515.832V242.892H525.717V228.94Z" fill="#D6DEFA"/>
<path d="M538.051 228.94H528.166V242.892H538.051V228.94Z" fill="#D6DEFA"/>
<path d="M550.384 228.94H540.499V242.892H550.384V228.94Z" fill="#D6DEFA"/>
<path d="M501.037 245.109H491.152V259.061H501.037V245.109Z" fill="#D6DEFA"/>
<path d="M513.371 245.109H503.486V259.061H513.371V245.109Z" fill="#D6DEFA"/>
<path d="M525.717 245.109H515.832V259.061H525.717V245.109Z" fill="#D6DEFA"/>
<path d="M538.051 245.109H528.166V259.061H538.051V245.109Z" fill="#D6DEFA"/>
<path d="M550.384 245.109H540.499V259.061H550.384V245.109Z" fill="#D6DEFA"/>
<path d="M501.037 261.291H491.152V275.243H501.037V261.291Z" fill="#D6DEFA"/>
<path d="M513.371 261.291H503.486V275.243H513.371V261.291Z" fill="#D6DEFA"/>
<path d="M525.717 261.291H515.832V275.243H525.717V261.291Z" fill="#D6DEFA"/>
<path d="M538.051 261.291H528.166V275.243H538.051V261.291Z" fill="#D6DEFA"/>
<path d="M550.384 261.291H540.499V275.243H550.384V261.291Z" fill="#D6DEFA"/>
<path d="M501.037 277.46H491.152V291.412H501.037V277.46Z" fill="#D6DEFA"/>
<path d="M513.371 277.46H503.486V291.412H513.371V277.46Z" fill="#D6DEFA"/>
<path d="M525.717 277.46H515.832V291.412H525.717V277.46Z" fill="#D6DEFA"/>
<path d="M538.051 277.46H528.166V291.412H538.051V277.46Z" fill="#D6DEFA"/>
<path d="M550.384 277.46H540.499V291.412H550.384V277.46Z" fill="#D6DEFA"/>
<path d="M501.037 293.642H491.152V307.594H501.037V293.642Z" fill="#D6DEFA"/>
<path d="M513.371 293.642H503.486V307.594H513.371V293.642Z" fill="#D6DEFA"/>
<path d="M525.717 293.642H515.832V307.594H525.717V293.642Z" fill="#D6DEFA"/>
<path d="M538.051 293.642H528.166V307.594H538.051V293.642Z" fill="#D6DEFA"/>
<path d="M550.384 293.642H540.499V307.594H550.384V293.642Z" fill="#D6DEFA"/>
<path d="M501.037 309.811H491.152V323.763H501.037V309.811Z" fill="#D6DEFA"/>
<path d="M513.371 309.811H503.486V323.763H513.371V309.811Z" fill="#D6DEFA"/>
<path d="M525.717 309.811H515.832V323.763H525.717V309.811Z" fill="#D6DEFA"/>
<path d="M538.051 309.811H528.166V323.763H538.051V309.811Z" fill="#D6DEFA"/>
<path d="M550.384 309.811H540.499V323.763H550.384V309.811Z" fill="#D6DEFA"/>
<path d="M501.037 325.993H491.152V339.945H501.037V325.993Z" fill="#D6DEFA"/>
<path d="M513.371 325.993H503.486V339.945H513.371V325.993Z" fill="#D6DEFA"/>
<path d="M525.717 325.993H515.832V339.945H525.717V325.993Z" fill="#D6DEFA"/>
<path d="M538.051 325.993H528.166V339.945H538.051V325.993Z" fill="#D6DEFA"/>
<path d="M550.384 325.993H540.499V339.945H550.384V325.993Z" fill="#D6DEFA"/>
<path d="M301.827 162.867H291.943V176.819H301.827V162.867Z" fill="#D6DEFA"/>
<path d="M314.161 162.867H304.276V176.819H314.161V162.867Z" fill="#D6DEFA"/>
<path d="M326.507 162.867H316.623V176.819H326.507V162.867Z" fill="#D6DEFA"/>
<path d="M338.841 162.867H328.956V176.819H338.841V162.867Z" fill="#D6DEFA"/>
<path d="M351.175 162.867H341.29V176.819H351.175V162.867Z" fill="#D6DEFA"/>
<path d="M301.827 179.049H291.943V193.001H301.827V179.049Z" fill="#D6DEFA"/>
<path d="M314.161 179.049H304.276V193.001H314.161V179.049Z" fill="#D6DEFA"/>
<path d="M326.507 179.049H316.623V193.001H326.507V179.049Z" fill="#D6DEFA"/>
<path d="M338.841 179.049H328.956V193.001H338.841V179.049Z" fill="#D6DEFA"/>
<path d="M351.175 179.049H341.29V193.001H351.175V179.049Z" fill="#D6DEFA"/>
<path d="M301.827 195.218H291.943V209.17H301.827V195.218Z" fill="#D6DEFA"/>
<path d="M314.161 195.218H304.276V209.17H314.161V195.218Z" fill="#D6DEFA"/>
<path d="M326.507 195.218H316.623V209.17H326.507V195.218Z" fill="#D6DEFA"/>
<path d="M338.841 195.218H328.956V209.17H338.841V195.218Z" fill="#D6DEFA"/>
<path d="M351.175 195.218H341.29V209.17H351.175V195.218Z" fill="#D6DEFA"/>
<path d="M301.827 211.4H291.943V225.352H301.827V211.4Z" fill="#D6DEFA"/>
<path d="M314.161 211.4H304.276V225.352H314.161V211.4Z" fill="#D6DEFA"/>
<path d="M326.507 211.4H316.623V225.352H326.507V211.4Z" fill="#D6DEFA"/>
<path d="M338.841 211.4H328.956V225.352H338.841V211.4Z" fill="#D6DEFA"/>
<path d="M351.175 211.4H341.29V225.352H351.175V211.4Z" fill="#D6DEFA"/>
<path d="M301.827 227.569H291.943V241.521H301.827V227.569Z" fill="#D6DEFA"/>
<path d="M314.161 227.569H304.276V241.521H314.161V227.569Z" fill="#D6DEFA"/>
<path d="M326.507 227.569H316.623V241.521H326.507V227.569Z" fill="#D6DEFA"/>
<path d="M338.841 227.569H328.956V241.521H338.841V227.569Z" fill="#D6DEFA"/>
<path d="M351.175 227.569H341.29V241.521H351.175V227.569Z" fill="#D6DEFA"/>
<path d="M301.827 243.751H291.943V257.703H301.827V243.751Z" fill="#D6DEFA"/>
<path d="M314.161 243.751H304.276V257.703H314.161V243.751Z" fill="#D6DEFA"/>
<path d="M326.507 243.751H316.623V257.703H326.507V243.751Z" fill="#D6DEFA"/>
<path d="M338.841 243.751H328.956V257.703H338.841V243.751Z" fill="#D6DEFA"/>
<path d="M351.175 243.751H341.29V257.703H351.175V243.751Z" fill="#D6DEFA"/>
<path d="M301.827 259.92H291.943V273.872H301.827V259.92Z" fill="#D6DEFA"/>
<path d="M314.161 259.92H304.276V273.872H314.161V259.92Z" fill="#D6DEFA"/>
<path d="M326.507 259.92H316.623V273.872H326.507V259.92Z" fill="#D6DEFA"/>
<path d="M338.841 259.92H328.956V273.872H338.841V259.92Z" fill="#D6DEFA"/>
<path d="M351.175 259.92H341.29V273.872H351.175V259.92Z" fill="#D6DEFA"/>
<path d="M301.827 276.102H291.943V290.054H301.827V276.102Z" fill="#D6DEFA"/>
<path d="M314.161 276.102H304.276V290.054H314.161V276.102Z" fill="#D6DEFA"/>
<path d="M326.507 276.102H316.623V290.054H326.507V276.102Z" fill="#D6DEFA"/>
<path d="M338.841 276.102H328.956V290.054H338.841V276.102Z" fill="#D6DEFA"/>
<path d="M351.175 276.102H341.29V290.054H351.175V276.102Z" fill="#D6DEFA"/>
<path d="M301.827 292.919H291.943V306.871H301.827V292.919Z" fill="#D6DEFA"/>
<path d="M314.161 292.919H304.276V306.871H314.161V292.919Z" fill="#D6DEFA"/>
<path d="M326.507 292.919H316.623V306.871H326.507V292.919Z" fill="#D6DEFA"/>
<path d="M338.841 292.919H328.956V306.871H338.841V292.919Z" fill="#D6DEFA"/>
<path d="M351.175 292.919H341.29V306.871H351.175V292.919Z" fill="#D6DEFA"/>
<path d="M301.827 309.749H291.943V323.701H301.827V309.749Z" fill="#D6DEFA"/>
<path d="M314.161 309.749H304.276V323.701H314.161V309.749Z" fill="#D6DEFA"/>
<path d="M326.507 309.749H316.623V323.701H326.507V309.749Z" fill="#D6DEFA"/>
<path d="M338.841 309.749H328.956V323.701H338.841V309.749Z" fill="#D6DEFA"/>
<path d="M351.175 309.749H341.29V323.701H351.175V309.749Z" fill="#D6DEFA"/>
<path d="M133.324 83.9765H120.08V102.687H133.324V83.9765Z" fill="#D6DEFA"/>
<path d="M149.862 83.9765H136.618V102.687H149.862V83.9765Z" fill="#D6DEFA"/>
<path d="M166.401 83.9765H153.157V102.687H166.401V83.9765Z" fill="#D6DEFA"/>
<path d="M182.94 83.9765H169.696V102.687H182.94V83.9765Z" fill="#D6DEFA"/>
<path d="M199.479 83.9765H186.235V102.687H199.479V83.9765Z" fill="#D6DEFA"/>
<path d="M133.324 105.664H120.08V124.375H133.324V105.664Z" fill="#D6DEFA"/>
<path d="M149.862 105.664H136.618V124.375H149.862V105.664Z" fill="#D6DEFA"/>
<path d="M166.401 105.664H153.157V124.375H166.401V105.664Z" fill="#D6DEFA"/>
<path d="M182.94 105.664H169.696V124.375H182.94V105.664Z" fill="#D6DEFA"/>
<path d="M199.479 105.664H186.235V124.375H199.479V105.664Z" fill="#D6DEFA"/>
<path d="M133.324 127.352H120.08V146.063H133.324V127.352Z" fill="#D6DEFA"/>
<path d="M149.862 127.352H136.618V146.063H149.862V127.352Z" fill="#D6DEFA"/>
<path d="M166.401 127.352H153.157V146.063H166.401V127.352Z" fill="#D6DEFA"/>
<path d="M182.94 127.352H169.696V146.063H182.94V127.352Z" fill="#D6DEFA"/>
<path d="M199.479 127.352H186.235V146.063H199.479V127.352Z" fill="#D6DEFA"/>
<path d="M133.324 149.04H120.08V167.75H133.324V149.04Z" fill="#D6DEFA"/>
<path d="M149.862 149.04H136.618V167.75H149.862V149.04Z" fill="#D6DEFA"/>
<path d="M166.401 149.04H153.157V167.75H166.401V149.04Z" fill="#D6DEFA"/>
<path d="M182.94 149.04H169.696V167.75H182.94V149.04Z" fill="#D6DEFA"/>
<path d="M199.479 149.04H186.235V167.75H199.479V149.04Z" fill="#D6DEFA"/>
<path d="M133.324 170.728H120.08V189.438H133.324V170.728Z" fill="#D6DEFA"/>
<path d="M149.862 170.728H136.618V189.438H149.862V170.728Z" fill="#D6DEFA"/>
<path d="M166.401 170.728H153.157V189.438H166.401V170.728Z" fill="#D6DEFA"/>
<path d="M182.94 170.728H169.696V189.438H182.94V170.728Z" fill="#D6DEFA"/>
<path d="M199.479 170.728H186.235V189.438H199.479V170.728Z" fill="#D6DEFA"/>
<path d="M133.324 192.415H120.08V211.126H133.324V192.415Z" fill="#D6DEFA"/>
<path d="M149.862 192.415H136.618V211.126H149.862V192.415Z" fill="#D6DEFA"/>
<path d="M166.401 192.415H153.157V211.126H166.401V192.415Z" fill="#D6DEFA"/>
<path d="M182.94 192.415H169.696V211.126H182.94V192.415Z" fill="#D6DEFA"/>
<path d="M199.479 192.415H186.235V211.126H199.479V192.415Z" fill="#D6DEFA"/>
<path d="M133.324 214.103H120.08V232.814H133.324V214.103Z" fill="#D6DEFA"/>
<path d="M149.862 214.103H136.618V232.814H149.862V214.103Z" fill="#D6DEFA"/>
<path d="M166.401 214.103H153.157V232.814H166.401V214.103Z" fill="#D6DEFA"/>
<path d="M182.94 214.103H169.696V232.814H182.94V214.103Z" fill="#D6DEFA"/>
<path d="M199.479 214.103H186.235V232.814H199.479V214.103Z" fill="#D6DEFA"/>
<path d="M133.324 235.791H120.08V254.502H133.324V235.791Z" fill="#D6DEFA"/>
<path d="M149.862 235.791H136.618V254.502H149.862V235.791Z" fill="#D6DEFA"/>
<path d="M166.401 235.791H153.157V254.502H166.401V235.791Z" fill="#D6DEFA"/>
<path d="M182.94 235.791H169.696V254.502H182.94V235.791Z" fill="#D6DEFA"/>
<path d="M199.479 235.791H186.235V254.502H199.479V235.791Z" fill="#D6DEFA"/>
<path d="M133.324 258.351H120.08V277.061H133.324V258.351Z" fill="#D6DEFA"/>
<path d="M149.862 258.351H136.618V277.061H149.862V258.351Z" fill="#D6DEFA"/>
<path d="M166.401 258.351H153.157V277.061H166.401V258.351Z" fill="#D6DEFA"/>
<path d="M182.94 258.351H169.696V277.061H182.94V258.351Z" fill="#D6DEFA"/>
<path d="M199.479 258.351H186.235V277.061H199.479V258.351Z" fill="#D6DEFA"/>
<path d="M133.324 280.911H120.08V299.621H133.324V280.911Z" fill="#D6DEFA"/>
<path d="M149.862 280.911H136.618V299.621H149.862V280.911Z" fill="#D6DEFA"/>
<path d="M166.401 280.911H153.157V299.621H166.401V280.911Z" fill="#D6DEFA"/>
<path d="M182.94 280.911H169.696V299.621H182.94V280.911Z" fill="#D6DEFA"/>
<path d="M199.479 280.911H186.235V299.621H199.479V280.911Z" fill="#D6DEFA"/>
<path d="M133.324 303.47H120.08V322.181H133.324V303.47Z" fill="#D6DEFA"/>
<path d="M149.862 303.47H136.618V322.181H149.862V303.47Z" fill="#D6DEFA"/>
<path d="M166.401 303.47H153.157V322.181H166.401V303.47Z" fill="#D6DEFA"/>
<path d="M182.94 303.47H169.696V322.181H182.94V303.47Z" fill="#D6DEFA"/>
<path d="M199.479 303.47H186.235V322.181H199.479V303.47Z" fill="#D6DEFA"/>
<path d="M280.173 220.892H235.005V342.586H280.173V220.892Z" fill="#A8B9F5"/>
<path d="M221.749 228.367L235.005 220.892V342.586H221.749V228.367Z" fill="#4D6EEA"/>
<path d="M246.134 312.464C246.134 326.367 239.634 331.673 231.608 331.673C223.582 331.673 217.082 326.367 217.082 312.464C217.082 298.562 223.582 281.322 231.608 281.322C239.634 281.322 246.134 298.562 246.134 312.464Z" fill="#D6DEFA"/>
<path d="M278.058 138.04L288.263 157.835H355.072L344.867 138.04H278.058Z" fill="#4D6EEA"/>
<path d="M380.662 231.132L392.97 223.832V342.586H380.662V231.132Z" fill="#A8B9F5"/>
<path d="M434.92 223.832H392.97V342.586H434.92V223.832Z" fill="#D6DEFA"/>
<path d="M411.381 227.569H396.278V242.244H411.381V227.569Z" fill="#EDF0FD"/>
<path d="M431.625 227.569H416.522V242.244H431.625V227.569Z" fill="#EDF0FD"/>
<path d="M411.381 246.89H396.278V261.565H411.381V246.89Z" fill="#EDF0FD"/>
<path d="M431.625 246.89H416.522V261.565H431.625V246.89Z" fill="#EDF0FD"/>
<path d="M411.381 266.211H396.278V280.886H411.381V266.211Z" fill="#EDF0FD"/>
<path d="M431.625 266.211H416.522V280.886H431.625V266.211Z" fill="#EDF0FD"/>
<path d="M411.381 285.532H396.278V300.207H411.381V285.532Z" fill="#EDF0FD"/>
<path d="M431.625 285.532H416.522V300.207H431.625V285.532Z" fill="#EDF0FD"/>
<path d="M411.381 304.866H396.278V319.54H411.381V304.866Z" fill="#EDF0FD"/>
<path d="M431.625 304.866H416.522V319.54H431.625V304.866Z" fill="#EDF0FD"/>
<path d="M411.381 324.187H396.278V338.861H411.381V324.187Z" fill="#EDF0FD"/>
<path d="M431.625 324.187H416.522V338.861H431.625V324.187Z" fill="#EDF0FD"/>
<path d="M487.614 205.47H464.869V342.586H487.614V205.47Z" fill="#4D6EEA"/>
<path d="M471.703 319.976C471.703 330.116 467.036 333.978 461.267 333.978C455.497 333.978 450.831 330.104 450.831 319.976C450.831 309.848 455.497 297.267 461.267 297.267C467.036 297.267 471.703 309.836 471.703 319.976Z" fill="#EDF0FD"/>
<path d="M232.826 306.099C232.826 305.438 232.278 304.903 231.601 304.903C230.925 304.903 230.377 305.438 230.377 306.099V341.402C230.377 342.063 230.925 342.598 231.601 342.598C232.278 342.598 232.826 342.063 232.826 341.402V306.099Z" fill="#A8B9F5"/>
<path d="M568 318.269C568 329.269 562.936 333.467 556.679 333.467C550.423 333.467 545.358 329.269 545.358 318.269C545.358 307.27 550.423 293.642 556.679 293.642C562.936 293.642 568 307.27 568 318.269Z" fill="#4D6EEA"/>
<path d="M557.051 320.337H556.32C555.641 320.337 555.089 320.873 555.089 321.533V341.39C555.089 342.05 555.641 342.586 556.32 342.586H557.051C557.731 342.586 558.282 342.05 558.282 341.39V321.533C558.282 320.873 557.731 320.337 557.051 320.337Z" fill="#7B93F0"/>
<path d="M462.498 316.625C462.498 315.965 461.949 315.429 461.273 315.429C460.597 315.429 460.049 315.965 460.049 316.625V341.402C460.049 342.063 460.597 342.598 461.273 342.598C461.949 342.598 462.498 342.063 462.498 341.402V316.625Z" fill="#D6DEFA"/>
<path d="M367.329 300.319C367.329 317.559 358.495 324.137 347.598 324.137C336.7 324.137 327.866 317.559 327.866 300.319C327.866 283.078 336.7 261.714 347.598 261.714C358.495 261.714 367.329 283.078 367.329 300.319Z" fill="#A8B9F5"/>
<path d="M348.008 298.662H347.187C346.508 298.662 345.957 299.197 345.957 299.858V341.402C345.957 342.063 346.508 342.598 347.187 342.598H348.008C348.688 342.598 349.239 342.063 349.239 341.402V299.858C349.239 299.197 348.688 298.662 348.008 298.662Z" fill="#7B93F0"/>
<path d="M276.032 322.306C276.032 330.801 272.121 334.04 267.288 334.04C262.455 334.04 258.544 330.801 258.544 322.306C258.544 313.81 262.455 303.271 267.288 303.271C272.121 303.271 276.032 313.81 276.032 322.306Z" fill="#4D6EEA"/>
<path d="M267.356 320.307H266.76C266.186 320.307 265.721 320.853 265.721 321.527V341.366C265.721 342.04 266.186 342.586 266.76 342.586H267.356C267.93 342.586 268.396 342.04 268.396 341.366V321.527C268.396 320.853 267.93 320.307 267.356 320.307Z" fill="#7B93F0"/>
<path d="M61.5142 201.733L71.6939 221.528H138.349L128.17 201.733H61.5142Z" fill="#4D6EEA"/>
<path d="M71.6939 221.528V342.586H49.9114V221.528L61.5142 201.97" fill="#A8B9F5"/>
<path d="M138.336 221.528H71.6939V342.586L138.336 342.586V221.528Z" fill="#D6DEFA"/>
<path d="M58.2064 319.988C58.2064 330.278 53.0525 334.202 46.6934 334.202C40.3342 334.202 35.1803 330.278 35.1803 319.988C35.1803 309.699 40.3342 296.955 46.6934 296.955C53.0525 296.955 58.2064 309.711 58.2064 319.988Z" fill="#D6DEFA"/>
<path d="M47.9113 318.083C47.9113 317.422 47.3632 316.887 46.687 316.887C46.0107 316.887 45.4626 317.422 45.4626 318.083V341.39C45.4626 342.05 46.0107 342.586 46.687 342.586C47.3632 342.586 47.9113 342.05 47.9113 341.39V318.083Z" fill="#A8B9F5"/>
<path d="M85.2968 229.7H77.6043V241.546H85.2968V229.7Z" fill="#EDF0FD"/>
<path d="M97.0791 229.7H89.3866V241.546H97.0791V229.7Z" fill="#EDF0FD"/>
<path d="M108.874 229.7H101.182V241.546H108.874V229.7Z" fill="#EDF0FD"/>
<path d="M120.657 229.7H112.964V241.546H120.657V229.7Z" fill="#EDF0FD"/>
<path d="M132.439 229.7H124.746V241.546H132.439V229.7Z" fill="#EDF0FD"/>
<path d="M85.2968 245.707H77.6043V257.554H85.2968V245.707Z" fill="#EDF0FD"/>
<path d="M97.0791 245.707H89.3866V257.554H97.0791V245.707Z" fill="#EDF0FD"/>
<path d="M108.874 245.707H101.182V257.554H108.874V245.707Z" fill="#EDF0FD"/>
<path d="M120.657 245.707H112.964V257.554H120.657V245.707Z" fill="#EDF0FD"/>
<path d="M132.439 245.707H124.746V257.554H132.439V245.707Z" fill="#EDF0FD"/>
<path d="M85.2968 261.714H77.6043V273.561H85.2968V261.714Z" fill="#EDF0FD"/>
<path d="M97.0791 261.714H89.3866V273.561H97.0791V261.714Z" fill="#EDF0FD"/>
<path d="M108.874 261.714H101.182V273.561H108.874V261.714Z" fill="#EDF0FD"/>
<path d="M120.657 261.714H112.964V273.561H120.657V261.714Z" fill="#EDF0FD"/>
<path d="M132.439 261.714H124.746V273.561H132.439V261.714Z" fill="#EDF0FD"/>
<path d="M85.2968 277.722H77.6043V289.568H85.2968V277.722Z" fill="#EDF0FD"/>
<path d="M97.0791 277.722H89.3866V289.568H97.0791V277.722Z" fill="#EDF0FD"/>
<path d="M108.874 277.722H101.182V289.568H108.874V277.722Z" fill="#EDF0FD"/>
<path d="M120.657 277.722H112.964V289.568H120.657V277.722Z" fill="#EDF0FD"/>
<path d="M132.439 277.722H124.746V289.568H132.439V277.722Z" fill="#EDF0FD"/>
<path d="M85.2968 293.729H77.6043V305.576H85.2968V293.729Z" fill="#EDF0FD"/>
<path d="M97.0791 293.729H89.3866V305.576H97.0791V293.729Z" fill="#EDF0FD"/>
<path d="M108.874 293.729H101.182V305.576H108.874V293.729Z" fill="#EDF0FD"/>
<path d="M120.657 293.729H112.964V305.576H120.657V293.729Z" fill="#EDF0FD"/>
<path d="M132.439 293.729H124.746V305.576H132.439V293.729Z" fill="#EDF0FD"/>
<path d="M85.2968 309.736H77.6043V321.583H85.2968V309.736Z" fill="#EDF0FD"/>
<path d="M97.0791 309.736H89.3866V321.583H97.0791V309.736Z" fill="#EDF0FD"/>
<path d="M108.874 309.736H101.182V321.583H108.874V309.736Z" fill="#EDF0FD"/>
<path d="M120.657 309.736H112.964V321.583H120.657V309.736Z" fill="#EDF0FD"/>
<path d="M132.439 309.736H124.746V321.583H132.439V309.736Z" fill="#EDF0FD"/>
<path d="M85.2968 325.744H77.6043V337.59H85.2968V325.744Z" fill="#EDF0FD"/>
<path d="M97.0791 325.744H89.3866V337.59H97.0791V325.744Z" fill="#EDF0FD"/>
<path d="M108.874 325.744H101.182V337.59H108.874V325.744Z" fill="#EDF0FD"/>
<path d="M120.657 325.744H112.964V337.59H120.657V325.744Z" fill="#EDF0FD"/>
<path d="M132.439 325.744H124.746V337.59H132.439V325.744Z" fill="#EDF0FD"/>
<path d="M163.888 308.889C163.888 324.672 155.209 330.689 144.49 330.689C133.772 330.689 125.093 324.672 125.093 308.889C125.093 293.106 133.772 273.548 144.49 273.548C155.209 273.548 163.888 293.106 163.888 308.889Z" fill="#4D6EEA"/>
<path d="M144.606 301.502H144.388C143.708 301.502 143.157 302.038 143.157 302.698V341.39C143.157 342.05 143.708 342.586 144.388 342.586H144.606C145.286 342.586 145.837 342.05 145.837 341.39V302.698C145.837 302.038 145.286 301.502 144.606 301.502Z" fill="#7B93F0"/>
<path d="M70.3477 160.737V156.091C70.3477 148.33 63.8732 142.027 55.8731 142.027C54.7192 142.027 53.6038 142.176 52.5268 142.413C51.0012 135.736 44.8856 130.74 37.5521 130.74C29.2955 130.74 22.5903 137.069 22.2441 145.004C20.9748 144.356 19.5389 143.982 18.0004 143.982C13.4234 143.982 9.65407 147.271 9.02585 151.544C8.35916 151.332 7.65402 151.22 6.91041 151.22C3.08981 151.22 0 154.234 0 157.934V160.725H70.3477V160.737Z" fill="#EDF0FD"/>
<path d="M517.473 73.9859C517.473 68.1684 512.627 63.4596 506.64 63.4596C505.781 63.4596 504.947 63.5718 504.14 63.7586C502.999 58.7633 498.421 55.0262 492.934 55.0262C486.755 55.0262 481.742 59.7723 481.472 65.7019C480.524 65.2161 479.447 64.942 478.306 64.942C474.882 64.942 472.062 67.4085 471.588 70.5976C471.088 70.4481 470.562 70.3609 470.011 70.3609C467.152 70.3609 464.831 72.6156 464.831 75.3935V77.4739H517.473V73.9859Z" fill="#EDF0FD"/>
</svg>
