<svg width="48" height="48" viewBox="0 0 48 48" fill="none" xmlns="http://www.w3.org/2000/svg">
<mask id="mask0_482_4670" style="mask-type:alpha" maskUnits="userSpaceOnUse" x="0" y="0" width="48" height="48">
<g clip-path="url(#clip0_482_4670)">
<path d="M14 19.334C14 17.9193 14.562 16.5626 15.5623 15.5623C16.5626 14.562 17.9193 14 19.334 14H36.666C37.3665 14 38.0601 14.138 38.7072 14.406C39.3544 14.6741 39.9424 15.067 40.4377 15.5623C40.933 16.0576 41.3259 16.6456 41.594 17.2928C41.862 17.9399 42 18.6335 42 19.334V36.666C42 37.3665 41.862 38.0601 41.594 38.7072C41.3259 39.3544 40.933 39.9424 40.4377 40.4377C39.9424 40.933 39.3544 41.3259 38.7072 41.594C38.0601 41.862 37.3665 42 36.666 42H19.334C18.6335 42 17.9399 41.862 17.2928 41.594C16.6456 41.3259 16.0576 40.933 15.5623 40.4377C15.067 39.9424 14.6741 39.3544 14.406 38.7072C14.138 38.0601 14 37.3665 14 36.666V19.334Z" stroke="#32373E" stroke-width="4" stroke-linecap="round" stroke-linejoin="round"/>
<path d="M8.024 33.474C7.41 33.1251 6.8993 32.62 6.5438 32.0098C6.1883 31.3996 6.00068 30.7062 6 30V10C6 7.8 7.8 6 10 6H30C31.5 6 32.316 6.77 33 8" stroke="#32373E" stroke-width="4" stroke-linecap="round" stroke-linejoin="round"/>
<path d="M22 28L26 32L34 24" stroke="#32373E" stroke-width="4" stroke-linecap="round" stroke-linejoin="round"/>
</g>
</mask>
<g mask="url(#mask0_482_4670)">
<rect width="48" height="48" fill="#CBD0D7"/>
</g>
<defs>
<clipPath id="clip0_482_4670">
<rect width="48" height="48" fill="white"/>
</clipPath>
</defs>
</svg>
