<svg xmlns="http://www.w3.org/2000/svg" width="25" height="24" viewBox="0 0 25 24" fill="none">
  <g clip-path="url(#clip0_1630_17776)">
    <path d="M12.5 21C17.4706 21 21.5 16.9706 21.5 12C21.5 7.02944 17.4706 3 12.5 3C7.52944 3 3.5 7.02944 3.5 12C3.5 16.9706 7.52944 21 12.5 21Z" stroke="#CBD0D7" stroke-width="1.5" stroke-linecap="round" stroke-linejoin="round"/>
    <path d="M14.75 16.5H10.25L14.2972 11.1037C14.4923 10.8446 14.629 10.5463 14.698 10.2293C14.767 9.91237 14.7667 9.58424 14.697 9.26742C14.6274 8.95061 14.49 8.6526 14.2944 8.39383C14.0988 8.13506 13.8496 7.92164 13.5638 7.76821C13.278 7.61478 12.9624 7.52496 12.6386 7.50491C12.3148 7.48486 11.9906 7.53506 11.688 7.65205C11.3855 7.76905 11.1118 7.95008 10.8858 8.18274C10.6597 8.4154 10.4867 8.69419 10.3784 8.99999" stroke="#CBD0D7" stroke-width="1.5" stroke-linecap="round" stroke-linejoin="round"/>
  </g>
  <defs>
    <clipPath id="clip0_1630_17776">
      <rect width="24" height="24" fill="white" transform="translate(0.5)"/>
    </clipPath>
  </defs>
</svg>