<svg width="49" height="48" viewBox="0 0 49 48" fill="none" xmlns="http://www.w3.org/2000/svg">
<path d="M18.5 10H14.5C13.4391 10 12.4217 10.4214 11.6716 11.1716C10.9214 11.9217 10.5 12.9391 10.5 14V38C10.5 39.0609 10.9214 40.0783 11.6716 40.8284C12.4217 41.5786 13.4391 42 14.5 42H34.5C35.5609 42 36.5783 41.5786 37.3284 40.8284C38.0786 40.0783 38.5 39.0609 38.5 38V14C38.5 12.9391 38.0786 11.9217 37.3284 11.1716C36.5783 10.4214 35.5609 10 34.5 10H30.5" stroke="#4D6EEA" stroke-width="4" stroke-linecap="round" stroke-linejoin="round"/>
<path d="M18.5 10C18.5 8.93913 18.9214 7.92172 19.6716 7.17157C20.4217 6.42143 21.4391 6 22.5 6H26.5C27.5609 6 28.5783 6.42143 29.3284 7.17157C30.0786 7.92172 30.5 8.93913 30.5 10C30.5 11.0609 30.0786 12.0783 29.3284 12.8284C28.5783 13.5786 27.5609 14 26.5 14H22.5C21.4391 14 20.4217 13.5786 19.6716 12.8284C18.9214 12.0783 18.5 11.0609 18.5 10Z" stroke="#4D6EEA" stroke-width="4" stroke-linecap="round" stroke-linejoin="round"/>
<path d="M18.5 24H30.5" stroke="#4D6EEA" stroke-width="4" stroke-linecap="round" stroke-linejoin="round"/>
<path d="M18.5 32H30.5" stroke="#4D6EEA" stroke-width="4" stroke-linecap="round" stroke-linejoin="round"/>
</svg>
