<svg width="48" height="48" viewBox="0 0 48 48" fill="none" xmlns="http://www.w3.org/2000/svg">
<mask id="mask0_482_4641" style="mask-type:alpha" maskUnits="userSpaceOnUse" x="0" y="0" width="48" height="48">
<g clip-path="url(#clip0_482_4641)">
<path d="M26 42V28L16 18L6 28V42H16M26 42H16M26 42H42V8C42 7.46957 41.7893 6.96086 41.4142 6.58579C41.0391 6.21071 40.5304 6 40 6H20C19.4696 6 18.9609 6.21071 18.5858 6.58579C18.2107 6.96086 18 7.46957 18 8V20M16 42V34" stroke="#32373E" stroke-width="4" stroke-linecap="round" stroke-linejoin="round"/>
<path d="M26 14V14.02" stroke="#32373E" stroke-width="4" stroke-linecap="round" stroke-linejoin="round"/>
<path d="M34 14V14.02" stroke="#32373E" stroke-width="4" stroke-linecap="round" stroke-linejoin="round"/>
<path d="M34 22V22.02" stroke="#32373E" stroke-width="4" stroke-linecap="round" stroke-linejoin="round"/>
<path d="M34 30V30.02" stroke="#32373E" stroke-width="4" stroke-linecap="round" stroke-linejoin="round"/>
</g>
</mask>
<g mask="url(#mask0_482_4641)">
<rect width="48" height="48" fill="#4D6EEA"/>
</g>
<defs>
<clipPath id="clip0_482_4641">
<rect width="48" height="48" fill="white"/>
</clipPath>
</defs>
</svg>
