<svg width="49" height="48" viewBox="0 0 49 48" fill="none" xmlns="http://www.w3.org/2000/svg">
<g id="Keyword">
<path id="Vector" d="M14.5 19.334C14.5 17.9193 15.062 16.5626 16.0623 15.5623C17.0626 14.562 18.4193 14 19.834 14H37.166C37.8665 14 38.5601 14.138 39.2072 14.406C39.8544 14.6741 40.4424 15.067 40.9377 15.5623C41.433 16.0576 41.8259 16.6456 42.094 17.2928C42.362 17.9399 42.5 18.6335 42.5 19.334V36.666C42.5 37.3665 42.362 38.0601 42.094 38.7072C41.8259 39.3544 41.433 39.9424 40.9377 40.4377C40.4424 40.933 39.8544 41.3259 39.2072 41.594C38.5601 41.862 37.8665 42 37.166 42H19.834C19.1335 42 18.4399 41.862 17.7928 41.594C17.1456 41.3259 16.5576 40.933 16.0623 40.4377C15.567 39.9424 15.1741 39.3544 14.906 38.7072C14.638 38.0601 14.5 37.3665 14.5 36.666V19.334Z" stroke="#32373E" stroke-width="4" stroke-linecap="round" stroke-linejoin="round"/>
<path id="Vector_2" d="M8.524 33.474C7.91 33.1251 7.3993 32.62 7.0438 32.0098C6.6883 31.3996 6.50068 30.7062 6.5 30V10C6.5 7.8 8.3 6 10.5 6H30.5C32 6 32.816 6.77 33.5 8" stroke="#32373E" stroke-width="4" stroke-linecap="round" stroke-linejoin="round"/>
<path id="Vector_3" d="M22.5 28L26.5 32L34.5 24" stroke="#32373E" stroke-width="4" stroke-linecap="round" stroke-linejoin="round"/>
</g>
</svg>
