<svg width="41" height="40" viewBox="0 0 41 40" fill="none" xmlns="http://www.w3.org/2000/svg">
<path id="Vector" d="M39.0593 7.77519L19.0677 27.7819C18.2881 28.5621 17.0286 28.5621 16.2489 27.7819L10.5913 22.12C9.81164 21.3397 9.81164 20.0793 10.5913 19.299C11.371 18.5188 12.6305 18.5188 13.4101 19.299L17.6483 23.5405L36.2205 4.95425C37.0002 4.17399 38.2597 4.17399 39.0393 4.95425C39.839 5.73451 39.839 6.99493 39.0593 7.77519ZM28.024 1.47309C24.6454 0.092624 20.807 -0.387536 16.8087 0.332704C8.67212 1.79319 2.17485 8.35538 0.795435 16.4981C-1.48361 30.0026 9.75166 41.5665 23.166 39.8259C31.0827 38.8056 37.7199 32.9036 39.799 25.201C40.5987 22.26 40.6786 19.4191 40.2188 16.7582C39.9589 15.1577 37.9798 14.5374 36.8203 15.6778C36.3605 16.138 36.1605 16.8182 36.2805 17.4584C36.7203 20.1193 36.5204 22.9603 35.2409 25.9813C32.9219 31.4031 27.884 35.3844 22.0265 35.9246C11.8308 36.8649 3.37435 28.222 4.63382 17.9586C5.49346 10.8762 11.1911 5.1143 18.2481 4.13397C21.7066 3.65381 24.9853 4.31403 27.7841 5.75451C28.5637 6.15465 29.5033 6.0146 30.1231 5.39439C31.0827 4.43407 30.8428 2.81353 29.6433 2.19333C29.1035 1.95325 28.5637 1.69316 28.024 1.47309Z" fill="#32373E"/>
</svg>
